[
  {
    "time": 0,
    "note": 67,
    "velocity": 80,
    "duration": 0.14196414375
  },
  {
    "time": 0,
    "note": 79,
    "velocity": 80,
    "duration": 0.14196414375
  },
  {
    "time": 0.14285699999999998,
    "note": 65,
    "velocity": 80,
    "duration": 0.14196414375000002
  },
  {
    "time": 0.14285699999999998,
    "note": 72,
    "velocity": 80,
    "duration": 0.14196414375000002
  },
  {
    "time": 0.285714,
    "note": 67,
    "velocity": 80,
    "duration": 0.14196414375
  },
  {
    "time": 0.285714,
    "note": 79,
    "velocity": 80,
    "duration": 0.14196414375
  },
  {
    "time": 0.42857100000000004,
    "note": 65,
    "velocity": 80,
    "duration": 0.14196414375
  },
  {
    "time": 0.42857100000000004,
    "note": 72,
    "velocity": 80,
    "duration": 0.14196414375
  },
  {
    "time": 0.571428,
    "note": 67,
    "velocity": 80,
    "duration": 0.14196414375
  },
  {
    "time": 0.571428,
    "note": 79,
    "velocity": 80,
    "duration": 0.14196414375
  },
  {
    "time": 0.7142850000000001,
    "note": 65,
    "velocity": 80,
    "duration": 0.14196414375
  },
  {
    "time": 0.7142850000000001,
    "note": 72,
    "velocity": 80,
    "duration": 0.14196414375
  },
  {
    "time": 0.8571420000000001,
    "note": 67,
    "velocity": 80,
    "duration": 0.14196414375
  },
  {
    "time": 0.8571420000000001,
    "note": 79,
    "velocity": 80,
    "duration": 0.14196414375
  },
  {
    "time": 0.9999990000000001,
    "note": 65,
    "velocity": 80,
    "duration": 0.14196414374999988
  },
  {
    "time": 0.9999990000000001,
    "note": 72,
    "velocity": 80,
    "duration": 0.14196414374999988
  },
  {
    "time": 1.1428559999999999,
    "note": 67,
    "velocity": 80,
    "duration": 0.14196414374999988
  },
  {
    "time": 1.1428559999999999,
    "note": 79,
    "velocity": 80,
    "duration": 0.14196414374999988
  },
  {
    "time": 1.2857129999999997,
    "note": 65,
    "velocity": 80,
    "duration": 0.14196414374999988
  },
  {
    "time": 1.2857129999999997,
    "note": 72,
    "velocity": 80,
    "duration": 0.14196414374999988
  },
  {
    "time": 1.4285699999999995,
    "note": 67,
    "velocity": 80,
    "duration": 0.14196414374999988
  },
  {
    "time": 1.4285699999999995,
    "note": 79,
    "velocity": 80,
    "duration": 0.14196414374999988
  },
  {
    "time": 1.5714269999999992,
    "note": 65,
    "velocity": 80,
    "duration": 0.14196414374999988
  },
  {
    "time": 1.5714269999999992,
    "note": 72,
    "velocity": 80,
    "duration": 0.14196414374999988
  },
  {
    "time": 1.714283999999999,
    "note": 67,
    "velocity": 80,
    "duration": 0.14196414374999988
  },
  {
    "time": 1.714283999999999,
    "note": 79,
    "velocity": 80,
    "duration": 0.14196414374999988
  },
  {
    "time": 1.8571409999999988,
    "note": 65,
    "velocity": 80,
    "duration": 0.14196414374999988
  },
  {
    "time": 1.8571409999999988,
    "note": 72,
    "velocity": 80,
    "duration": 0.14196414374999988
  },
  {
    "time": 1.9999979999999986,
    "note": 67,
    "velocity": 80,
    "duration": 0.14196414374999988
  },
  {
    "time": 1.9999979999999986,
    "note": 79,
    "velocity": 80,
    "duration": 0.14196414374999988
  },
  {
    "time": 2.1428549999999986,
    "note": 65,
    "velocity": 80,
    "duration": 0.1419641437500001
  },
  {
    "time": 2.1428549999999986,
    "note": 72,
    "velocity": 80,
    "duration": 0.1419641437500001
  },
  {
    "time": 2.285711999999999,
    "note": 67,
    "velocity": 80,
    "duration": 0.1419641437500001
  },
  {
    "time": 2.285711999999999,
    "note": 79,
    "velocity": 80,
    "duration": 0.1419641437500001
  },
  {
    "time": 2.428568999999999,
    "note": 65,
    "velocity": 80,
    "duration": 0.1419641437500001
  },
  {
    "time": 2.428568999999999,
    "note": 72,
    "velocity": 80,
    "duration": 0.1419641437500001
  },
  {
    "time": 2.5714259999999993,
    "note": 67,
    "velocity": 80,
    "duration": 0.1419641437500001
  },
  {
    "time": 2.5714259999999993,
    "note": 79,
    "velocity": 80,
    "duration": 0.1419641437500001
  },
  {
    "time": 2.7142829999999996,
    "note": 65,
    "velocity": 80,
    "duration": 0.1419641437500001
  },
  {
    "time": 2.7142829999999996,
    "note": 72,
    "velocity": 80,
    "duration": 0.1419641437500001
  },
  {
    "time": 2.85714,
    "note": 65,
    "velocity": 49,
    "duration": 0.1419641437500001
  },
  {
    "time": 2.85714,
    "note": 79,
    "velocity": 49,
    "duration": 0.1419641437500001
  },
  {
    "time": 2.999997,
    "note": 67,
    "velocity": 49,
    "duration": 0.1419641437500001
  },
  {
    "time": 2.999997,
    "note": 72,
    "velocity": 49,
    "duration": 0.1419641437500001
  },
  {
    "time": 3.1428540000000003,
    "note": 65,
    "velocity": 49,
    "duration": 0.1419641437500001
  },
  {
    "time": 3.1428540000000003,
    "note": 79,
    "velocity": 49,
    "duration": 0.1419641437500001
  },
  {
    "time": 3.2857110000000005,
    "note": 67,
    "velocity": 51,
    "duration": 0.1419641437500001
  },
  {
    "time": 3.2857110000000005,
    "note": 72,
    "velocity": 51,
    "duration": 0.1419641437500001
  },
  {
    "time": 3.4285680000000007,
    "note": 65,
    "velocity": 53,
    "duration": 0.1419641437500001
  },
  {
    "time": 3.4285680000000007,
    "note": 79,
    "velocity": 53,
    "duration": 0.1419641437500001
  },
  {
    "time": 3.571425000000001,
    "note": 67,
    "velocity": 56,
    "duration": 0.1419641437500001
  },
  {
    "time": 3.571425000000001,
    "note": 72,
    "velocity": 56,
    "duration": 0.1419641437500001
  },
  {
    "time": 3.714282000000001,
    "note": 65,
    "velocity": 58,
    "duration": 0.1419641437500001
  },
  {
    "time": 3.714282000000001,
    "note": 79,
    "velocity": 58,
    "duration": 0.1419641437500001
  },
  {
    "time": 3.8571390000000014,
    "note": 67,
    "velocity": 60,
    "duration": 0.1419641437500001
  },
  {
    "time": 3.8571390000000014,
    "note": 72,
    "velocity": 60,
    "duration": 0.1419641437500001
  },
  {
    "time": 3.9999960000000017,
    "note": 65,
    "velocity": 63,
    "duration": 0.14196414374999966
  },
  {
    "time": 3.9999960000000017,
    "note": 79,
    "velocity": 63,
    "duration": 0.14196414374999966
  },
  {
    "time": 4.1428530000000015,
    "note": 67,
    "velocity": 65,
    "duration": 0.1419641437500001
  },
  {
    "time": 4.1428530000000015,
    "note": 72,
    "velocity": 65,
    "duration": 0.1419641437500001
  },
  {
    "time": 4.285710000000002,
    "note": 65,
    "velocity": 67,
    "duration": 0.1419641437500001
  },
  {
    "time": 4.285710000000002,
    "note": 79,
    "velocity": 67,
    "duration": 0.1419641437500001
  },
  {
    "time": 4.428567000000002,
    "note": 67,
    "velocity": 70,
    "duration": 0.1419641437500001
  },
  {
    "time": 4.428567000000002,
    "note": 72,
    "velocity": 70,
    "duration": 0.1419641437500001
  },
  {
    "time": 4.571424000000002,
    "note": 65,
    "velocity": 72,
    "duration": 0.1419641437500001
  },
  {
    "time": 4.571424000000002,
    "note": 79,
    "velocity": 72,
    "duration": 0.1419641437500001
  },
  {
    "time": 4.714281000000002,
    "note": 67,
    "velocity": 74,
    "duration": 0.1419641437500001
  },
  {
    "time": 4.714281000000002,
    "note": 72,
    "velocity": 74,
    "duration": 0.1419641437500001
  },
  {
    "time": 4.857138000000003,
    "note": 65,
    "velocity": 77,
    "duration": 0.1419641437500001
  },
  {
    "time": 4.857138000000003,
    "note": 79,
    "velocity": 77,
    "duration": 0.1419641437500001
  },
  {
    "time": 4.999995000000003,
    "note": 67,
    "velocity": 79,
    "duration": 0.1419641437500001
  },
  {
    "time": 4.999995000000003,
    "note": 72,
    "velocity": 79,
    "duration": 0.1419641437500001
  },
  {
    "time": 5.142852000000003,
    "note": 65,
    "velocity": 81,
    "duration": 0.1419641437500001
  },
  {
    "time": 5.142852000000003,
    "note": 79,
    "velocity": 81,
    "duration": 0.1419641437500001
  },
  {
    "time": 5.285709000000003,
    "note": 67,
    "velocity": 84,
    "duration": 0.1419641437500001
  },
  {
    "time": 5.285709000000003,
    "note": 72,
    "velocity": 84,
    "duration": 0.1419641437500001
  },
  {
    "time": 5.4285660000000036,
    "note": 65,
    "velocity": 86,
    "duration": 0.1419641437500001
  },
  {
    "time": 5.4285660000000036,
    "note": 79,
    "velocity": 86,
    "duration": 0.1419641437500001
  },
  {
    "time": 5.571423000000004,
    "note": 67,
    "velocity": 88,
    "duration": 0.1419641437500001
  },
  {
    "time": 5.571423000000004,
    "note": 72,
    "velocity": 88,
    "duration": 0.1419641437500001
  },
  {
    "time": 5.714280000000004,
    "note": 65,
    "velocity": 91,
    "duration": 0.1419641437500001
  },
  {
    "time": 5.714280000000004,
    "note": 79,
    "velocity": 91,
    "duration": 0.1419641437500001
  },
  {
    "time": 5.857137000000004,
    "note": 67,
    "velocity": 93,
    "duration": 0.1419641437500001
  },
  {
    "time": 5.857137000000004,
    "note": 72,
    "velocity": 93,
    "duration": 0.1419641437500001
  },
  {
    "time": 6.428565000000004,
    "note": 69,
    "velocity": 96,
    "duration": 0.1419641437500001
  },
  {
    "time": 6.428565000000004,
    "note": 77,
    "velocity": 96,
    "duration": 0.1419641437500001
  },
  {
    "time": 6.5714220000000045,
    "note": 65,
    "velocity": 96,
    "duration": 0.1419641437500001
  },
  {
    "time": 6.5714220000000045,
    "note": 72,
    "velocity": 96,
    "duration": 0.1419641437500001
  },
  {
    "time": 6.714279000000005,
    "note": 62,
    "velocity": 96,
    "duration": 0.1419641437500001
  },
  {
    "time": 6.714279000000005,
    "note": 69,
    "velocity": 96,
    "duration": 0.1419641437500001
  },
  {
    "time": 6.857136000000005,
    "note": 58,
    "velocity": 96,
    "duration": 0.1419641437500001
  },
  {
    "time": 6.857136000000005,
    "note": 65,
    "velocity": 96,
    "duration": 0.1419641437500001
  },
  {
    "time": 6.999993000000005,
    "note": 62,
    "velocity": 96,
    "duration": 0.1419641437500001
  },
  {
    "time": 6.999993000000005,
    "note": 69,
    "velocity": 96,
    "duration": 0.1419641437500001
  },
  {
    "time": 7.1428500000000055,
    "note": 65,
    "velocity": 96,
    "duration": 0.1419641437500001
  },
  {
    "time": 7.1428500000000055,
    "note": 72,
    "velocity": 96,
    "duration": 0.1419641437500001
  },
  {
    "time": 7.285707000000006,
    "note": 69,
    "velocity": 96,
    "duration": 0.1419641437500001
  },
  {
    "time": 7.285707000000006,
    "note": 77,
    "velocity": 96,
    "duration": 0.1419641437500001
  },
  {
    "time": 7.428564000000006,
    "note": 65,
    "velocity": 96,
    "duration": 0.1419641437500001
  },
  {
    "time": 7.428564000000006,
    "note": 72,
    "velocity": 96,
    "duration": 0.1419641437500001
  },
  {
    "time": 7.571421000000006,
    "note": 62,
    "velocity": 96,
    "duration": 0.1419641437500001
  },
  {
    "time": 7.571421000000006,
    "note": 69,
    "velocity": 96,
    "duration": 0.1419641437500001
  },
  {
    "time": 7.714278000000006,
    "note": 70,
    "velocity": 96,
    "duration": 0.1419641437500001
  },
  {
    "time": 7.714278000000006,
    "note": 77,
    "velocity": 96,
    "duration": 0.1419641437500001
  },
  {
    "time": 7.857135000000007,
    "note": 69,
    "velocity": 96,
    "duration": 0.1419641437500001
  },
  {
    "time": 7.857135000000007,
    "note": 72,
    "velocity": 96,
    "duration": 0.1419641437500001
  },
  {
    "time": 7.999992000000007,
    "note": 65,
    "velocity": 96,
    "duration": 0.14196414374999922
  },
  {
    "time": 7.999992000000007,
    "note": 70,
    "velocity": 96,
    "duration": 0.14196414374999922
  },
  {
    "time": 8.142849000000005,
    "note": 64,
    "velocity": 96,
    "duration": 0.1419641437500001
  },
  {
    "time": 8.142849000000005,
    "note": 69,
    "velocity": 96,
    "duration": 0.1419641437500001
  },
  {
    "time": 8.285706000000005,
    "note": 65,
    "velocity": 96,
    "duration": 0.1419641437500001
  },
  {
    "time": 8.285706000000005,
    "note": 70,
    "velocity": 96,
    "duration": 0.1419641437500001
  },
  {
    "time": 8.428563000000004,
    "note": 70,
    "velocity": 96,
    "duration": 0.1419641437500001
  },
  {
    "time": 8.428563000000004,
    "note": 77,
    "velocity": 96,
    "duration": 0.1419641437500001
  },
  {
    "time": 8.571420000000003,
    "note": 72,
    "velocity": 96,
    "duration": 0.10624989375000027
  },
  {
    "time": 8.678562750000003,
    "note": 70,
    "velocity": 96,
    "duration": 0.10624989375000027
  },
  {
    "time": 8.785705500000002,
    "note": 69,
    "velocity": 96,
    "duration": 0.10624989375000027
  },
  {
    "time": 8.892848250000002,
    "note": 70,
    "velocity": 96,
    "duration": 0.10624989375000027
  },
  {
    "time": 8.999991000000001,
    "note": 79,
    "velocity": 115,
    "duration": 0.1419641437500001
  },
  {
    "time": 9.142848,
    "note": 69,
    "velocity": 96,
    "duration": 0.1419641437500001
  },
  {
    "time": 9.285705,
    "note": 70,
    "velocity": 96,
    "duration": 0.1419641437500001
  },
  {
    "time": 9.428562,
    "note": 77,
    "velocity": 115,
    "duration": 0.1419641437500001
  },
  {
    "time": 9.571418999999999,
    "note": 69,
    "velocity": 96,
    "duration": 0.1419641437500001
  },
  {
    "time": 9.714275999999998,
    "note": 70,
    "velocity": 96,
    "duration": 0.1419641437500001
  },
  {
    "time": 9.857132999999997,
    "note": 62,
    "velocity": 96,
    "duration": 0.21339264374999978
  },
  {
    "time": 10.071418499999996,
    "note": 70,
    "velocity": 96,
    "duration": 0.10624989375000027
  },
  {
    "time": 10.178561249999996,
    "note": 74,
    "velocity": 96,
    "duration": 0.10624989375000027
  }
]